<mxfile host="Electron" agent="Mozilla/5.0 (Windows NT 10.0; Win64; x64) AppleWebKit/537.36 (KHTML, like Gecko) draw.io/25.0.2 Chrome/128.0.6613.186 Electron/32.2.5 Safari/537.36" version="25.0.2">
  <diagram name="Page-1" id="S-psWw_buEXYq5AMUQeR">
    <mxGraphModel dx="1036" dy="606" grid="1" gridSize="10" guides="1" tooltips="1" connect="1" arrows="1" fold="1" page="1" pageScale="1" pageWidth="850" pageHeight="1100" math="0" shadow="0">
      <root>
        <mxCell id="0" />
        <mxCell id="1" parent="0" />
        <mxCell id="Kz8ef3XuNCfVQ5vndx2f-2" style="edgeStyle=orthogonalEdgeStyle;rounded=0;orthogonalLoop=1;jettySize=auto;html=1;entryX=0.5;entryY=0;entryDx=0;entryDy=0;" edge="1" parent="1" source="WVtpR_5HyRxMGV9OjwTv-1" target="WVtpR_5HyRxMGV9OjwTv-5">
          <mxGeometry relative="1" as="geometry" />
        </mxCell>
        <mxCell id="WVtpR_5HyRxMGV9OjwTv-1" value="Start" style="ellipse;whiteSpace=wrap;html=1;fontSize=20;" parent="1" vertex="1">
          <mxGeometry x="180" width="120" height="80" as="geometry" />
        </mxCell>
        <mxCell id="WVtpR_5HyRxMGV9OjwTv-2" value="End" style="ellipse;whiteSpace=wrap;html=1;fontSize=20;" parent="1" vertex="1">
          <mxGeometry x="180" y="470" width="120" height="80" as="geometry" />
        </mxCell>
        <mxCell id="Kz8ef3XuNCfVQ5vndx2f-1" style="edgeStyle=orthogonalEdgeStyle;rounded=0;orthogonalLoop=1;jettySize=auto;html=1;" edge="1" parent="1" source="WVtpR_5HyRxMGV9OjwTv-5" target="WVtpR_5HyRxMGV9OjwTv-7">
          <mxGeometry relative="1" as="geometry" />
        </mxCell>
        <mxCell id="WVtpR_5HyRxMGV9OjwTv-5" value="Nhập n" style="shape=parallelogram;perimeter=parallelogramPerimeter;whiteSpace=wrap;html=1;fixedSize=1;fontSize=20;" parent="1" vertex="1">
          <mxGeometry x="180" y="120" width="120" height="60" as="geometry" />
        </mxCell>
        <mxCell id="Kz8ef3XuNCfVQ5vndx2f-3" style="edgeStyle=orthogonalEdgeStyle;rounded=0;orthogonalLoop=1;jettySize=auto;html=1;entryX=0.5;entryY=0;entryDx=0;entryDy=0;" edge="1" parent="1" source="WVtpR_5HyRxMGV9OjwTv-7" target="WVtpR_5HyRxMGV9OjwTv-10">
          <mxGeometry relative="1" as="geometry" />
        </mxCell>
        <mxCell id="Kz8ef3XuNCfVQ5vndx2f-4" style="edgeStyle=orthogonalEdgeStyle;rounded=0;orthogonalLoop=1;jettySize=auto;html=1;entryX=0.5;entryY=0;entryDx=0;entryDy=0;" edge="1" parent="1" source="WVtpR_5HyRxMGV9OjwTv-7" target="WVtpR_5HyRxMGV9OjwTv-9">
          <mxGeometry relative="1" as="geometry" />
        </mxCell>
        <mxCell id="WVtpR_5HyRxMGV9OjwTv-7" value="n%2==0" style="strokeWidth=2;html=1;shape=mxgraph.flowchart.decision;whiteSpace=wrap;fontSize=20;" parent="1" vertex="1">
          <mxGeometry x="170" y="220" width="140" height="90" as="geometry" />
        </mxCell>
        <mxCell id="Kz8ef3XuNCfVQ5vndx2f-6" style="edgeStyle=orthogonalEdgeStyle;rounded=0;orthogonalLoop=1;jettySize=auto;html=1;" edge="1" parent="1" source="WVtpR_5HyRxMGV9OjwTv-9">
          <mxGeometry relative="1" as="geometry">
            <mxPoint x="240" y="460" as="targetPoint" />
          </mxGeometry>
        </mxCell>
        <mxCell id="WVtpR_5HyRxMGV9OjwTv-9" value="n là số chẵn" style="rounded=1;whiteSpace=wrap;html=1;absoluteArcSize=1;arcSize=14;strokeWidth=2;fontSize=20;" parent="1" vertex="1">
          <mxGeometry x="50" y="360" width="110" height="60" as="geometry" />
        </mxCell>
        <mxCell id="Kz8ef3XuNCfVQ5vndx2f-5" style="edgeStyle=orthogonalEdgeStyle;rounded=0;orthogonalLoop=1;jettySize=auto;html=1;" edge="1" parent="1" source="WVtpR_5HyRxMGV9OjwTv-10" target="WVtpR_5HyRxMGV9OjwTv-2">
          <mxGeometry relative="1" as="geometry" />
        </mxCell>
        <mxCell id="WVtpR_5HyRxMGV9OjwTv-10" value="n là số lẻ" style="rounded=1;whiteSpace=wrap;html=1;absoluteArcSize=1;arcSize=14;strokeWidth=2;fontSize=20;" parent="1" vertex="1">
          <mxGeometry x="320" y="360" width="100" height="60" as="geometry" />
        </mxCell>
        <mxCell id="WVtpR_5HyRxMGV9OjwTv-19" value="true" style="text;align=center;html=1;verticalAlign=middle;whiteSpace=wrap;rounded=0;fontSize=20;" parent="1" vertex="1">
          <mxGeometry x="100" y="230" width="60" height="30" as="geometry" />
        </mxCell>
        <mxCell id="WVtpR_5HyRxMGV9OjwTv-20" value="false" style="text;align=center;html=1;verticalAlign=middle;whiteSpace=wrap;rounded=0;fontSize=20;" parent="1" vertex="1">
          <mxGeometry x="310" y="230" width="60" height="30" as="geometry" />
        </mxCell>
      </root>
    </mxGraphModel>
  </diagram>
</mxfile>
